<?xml version="1.0" encoding="utf-8" standalone="no"?>
<!DOCTYPE svg PUBLIC "-//W3C//DTD SVG 1.1//EN"
  "http://www.w3.org/Graphics/SVG/1.1/DTD/svg11.dtd">
<svg xmlns:xlink="http://www.w3.org/1999/xlink" width="519.59952pt" height="224.39952pt" viewBox="0 0 519.59952 224.39952" xmlns="http://www.w3.org/2000/svg" version="1.1">
 <metadata>
  <rdf:RDF xmlns:dc="http://purl.org/dc/elements/1.1/" xmlns:cc="http://creativecommons.org/ns#" xmlns:rdf="http://www.w3.org/1999/02/22-rdf-syntax-ns#">
   <cc:Work>
    <dc:type rdf:resource="http://purl.org/dc/dcmitype/StillImage"/>
    <dc:date>2026-08-11T17:51:14.900336</dc:date>
    <dc:format>image/svg+xml</dc:format>
    <dc:creator>
     <cc:Agent>
      <dc:title>Matplotlib v3.10.6, https://matplotlib.org/</dc:title>
     </cc:Agent>
    </dc:creator>
   </cc:Work>
  </rdf:RDF>
 </metadata>
 <defs>
  <style type="text/css">*{stroke-linejoin: round; stroke-linecap: butt}</style>
 </defs>
 <g id="figure_1">
  <g id="patch_1">
   <path d="M 0 224.39952 
L 519.59952 224.39952 
L 519.59952 0 
L 0 0 
z
" style="fill: #fcfcfb"/>
  </g>
  <g id="axes_1">
   <g id="patch_2">
    <path d="M 53.143125 192.355379 
L 515.99952 192.355379 
L 515.99952 26.640312 
L 53.143125 26.640312 
z
" style="fill: #fcfcfb"/>
   </g>
   <g id="matplotlib.axis_1">
    <g id="xtick_1">
     <g id="line2d_1">
      <defs>
       <path id="m7d063a3aad" d="M 0 0 
L 0 3 
" style="stroke: #898781; stroke-width: 0.8"/>
      </defs>
      <g>
       <use xlink:href="#m7d063a3aad" x="67.050212" y="192.355379" style="fill: #898781; stroke: #898781; stroke-width: 0.8"/>
      </g>
     </g>
     <g id="text_1">
      <text style="font-size: 8.5px; font-family: 'Helvetica Neue', 'Helvetica', 'Arial', 'DejaVu Sans', sans-serif; text-anchor: middle; fill: #898781" x="67.050212" y="204.924911" transform="rotate(-0 67.050212 204.924911)">0</text>
     </g>
    </g>
    <g id="xtick_2">
     <g id="line2d_2">
      <g>
       <use xlink:href="#m7d063a3aad" x="138.368609" y="192.355379" style="fill: #898781; stroke: #898781; stroke-width: 0.8"/>
      </g>
     </g>
     <g id="text_2">
      <text style="font-size: 8.5px; font-family: 'Helvetica Neue', 'Helvetica', 'Arial', 'DejaVu Sans', sans-serif; text-anchor: middle; fill: #898781" x="138.368609" y="204.924911" transform="rotate(-0 138.368609 204.924911)">2000</text>
     </g>
    </g>
    <g id="xtick_3">
     <g id="line2d_3">
      <g>
       <use xlink:href="#m7d063a3aad" x="209.687006" y="192.355379" style="fill: #898781; stroke: #898781; stroke-width: 0.8"/>
      </g>
     </g>
     <g id="text_3">
      <text style="font-size: 8.5px; font-family: 'Helvetica Neue', 'Helvetica', 'Arial', 'DejaVu Sans', sans-serif; text-anchor: middle; fill: #898781" x="209.687006" y="204.924911" transform="rotate(-0 209.687006 204.924911)">4000</text>
     </g>
    </g>
    <g id="xtick_4">
     <g id="line2d_4">
      <g>
       <use xlink:href="#m7d063a3aad" x="281.005403" y="192.355379" style="fill: #898781; stroke: #898781; stroke-width: 0.8"/>
      </g>
     </g>
     <g id="text_4">
      <text style="font-size: 8.5px; font-family: 'Helvetica Neue', 'Helvetica', 'Arial', 'DejaVu Sans', sans-serif; text-anchor: middle; fill: #898781" x="281.005403" y="204.924911" transform="rotate(-0 281.005403 204.924911)">6000</text>
     </g>
    </g>
    <g id="xtick_5">
     <g id="line2d_5">
      <g>
       <use xlink:href="#m7d063a3aad" x="352.323799" y="192.355379" style="fill: #898781; stroke: #898781; stroke-width: 0.8"/>
      </g>
     </g>
     <g id="text_5">
      <text style="font-size: 8.5px; font-family: 'Helvetica Neue', 'Helvetica', 'Arial', 'DejaVu Sans', sans-serif; text-anchor: middle; fill: #898781" x="352.323799" y="204.924911" transform="rotate(-0 352.323799 204.924911)">8000</text>
     </g>
    </g>
    <g id="xtick_6">
     <g id="line2d_6">
      <g>
       <use xlink:href="#m7d063a3aad" x="423.642196" y="192.355379" style="fill: #898781; stroke: #898781; stroke-width: 0.8"/>
      </g>
     </g>
     <g id="text_6">
      <text style="font-size: 8.5px; font-family: 'Helvetica Neue', 'Helvetica', 'Arial', 'DejaVu Sans', sans-serif; text-anchor: middle; fill: #898781" x="423.642196" y="204.924911" transform="rotate(-0 423.642196 204.924911)">10000</text>
     </g>
    </g>
    <g id="xtick_7">
     <g id="line2d_7">
      <g>
       <use xlink:href="#m7d063a3aad" x="494.960593" y="192.355379" style="fill: #898781; stroke: #898781; stroke-width: 0.8"/>
      </g>
     </g>
     <g id="text_7">
      <text style="font-size: 8.5px; font-family: 'Helvetica Neue', 'Helvetica', 'Arial', 'DejaVu Sans', sans-serif; text-anchor: middle; fill: #898781" x="494.960593" y="204.924911" transform="rotate(-0 494.960593 204.924911)">12000</text>
     </g>
    </g>
    <g id="text_8">
     <text style="font-size: 9px; font-family: 'Helvetica Neue', 'Helvetica', 'Arial', 'DejaVu Sans', sans-serif; text-anchor: middle; fill: #52514e" x="284.571323" y="219.026239" transform="rotate(-0 284.571323 219.026239)">optimiser step</text>
    </g>
   </g>
   <g id="matplotlib.axis_2">
    <g id="ytick_1">
     <g id="line2d_8">
      <path d="M 53.143125 79.434942 
L 515.99952 79.434942 
" clip-path="url(#p67ab377e4a)" style="fill: none; stroke: #e1e0d9; stroke-width: 0.4; stroke-linecap: round"/>
     </g>
     <g id="line2d_9">
      <defs>
       <path id="m24c098e5dd" d="M 0 0 
L -3 0 
" style="stroke: #898781; stroke-width: 0.8"/>
      </defs>
      <g>
       <use xlink:href="#m24c098e5dd" x="53.143125" y="79.434942" style="fill: #898781; stroke: #898781; stroke-width: 0.8"/>
      </g>
     </g>
     <g id="text_9">
      <!-- $\mathdefault{10^{0}}$ -->
      <g style="fill: #898781" transform="translate(33.553125 82.469707)">
       <text>
        <tspan x="0" y="-0.704688" style="font-size: 8.5px; font-family: 'Helvetica Neue'; fill: #898781">1</tspan>
        <tspan x="4.725998" y="-0.704688" style="font-size: 8.5px; font-family: 'Helvetica Neue'; fill: #898781">0</tspan>
        <tspan x="9.528832" y="-3.778125" style="font-size: 5.95px; font-family: 'Helvetica Neue'; fill: #898781">0</tspan>
       </text>
      </g>
     </g>
    </g>
    <g id="ytick_2">
     <g id="line2d_10">
      <defs>
       <path id="mffaa9b6fc7" d="M 0 0 
L -2 0 
" style="stroke: #898781; stroke-width: 0.6"/>
      </defs>
      <g>
       <use xlink:href="#mffaa9b6fc7" x="53.143125" y="186.260383" style="fill: #898781; stroke: #898781; stroke-width: 0.6"/>
      </g>
     </g>
     <g id="text_10">
      <!-- $\mathdefault{3\times10^{-1}}$ -->
      <g style="fill: #898781" transform="translate(17.908125 189.295149)">
       <text>
        <tspan x="0" y="-0.704688" style="font-size: 8.5px; font-family: 'Helvetica Neue'; fill: #898781">3</tspan>
        <tspan x="6.382004" y="-0.704688" style="font-size: 8.5px; font-family: 'Helvetica Neue'; fill: #898781">×</tspan>
        <tspan x="13.138016" y="-0.704688" style="font-size: 8.5px; font-family: 'Helvetica Neue'; fill: #898781">1</tspan>
        <tspan x="17.864014" y="-0.704688" style="font-size: 8.5px; font-family: 'Helvetica Neue'; fill: #898781">0</tspan>
        <tspan x="22.666848" y="-3.778125" style="font-size: 5.95px; font-family: 'Helvetica Neue'; fill: #898781">−</tspan>
        <tspan x="26.236852" y="-3.778125" style="font-size: 5.95px; font-family: 'Helvetica Neue'; fill: #898781">1</tspan>
       </text>
      </g>
     </g>
    </g>
    <g id="ytick_3">
     <g id="line2d_11">
      <g>
       <use xlink:href="#mffaa9b6fc7" x="53.143125" y="160.735086" style="fill: #898781; stroke: #898781; stroke-width: 0.6"/>
      </g>
     </g>
     <g id="text_11">
      <!-- $\mathdefault{4\times10^{-1}}$ -->
      <g style="fill: #898781" transform="translate(17.908125 163.769851)">
       <text>
        <tspan x="0" y="-0.704688" style="font-size: 8.5px; font-family: 'Helvetica Neue'; fill: #898781">4</tspan>
        <tspan x="6.382004" y="-0.704688" style="font-size: 8.5px; font-family: 'Helvetica Neue'; fill: #898781">×</tspan>
        <tspan x="13.138016" y="-0.704688" style="font-size: 8.5px; font-family: 'Helvetica Neue'; fill: #898781">1</tspan>
        <tspan x="17.864014" y="-0.704688" style="font-size: 8.5px; font-family: 'Helvetica Neue'; fill: #898781">0</tspan>
        <tspan x="22.666848" y="-3.778125" style="font-size: 5.95px; font-family: 'Helvetica Neue'; fill: #898781">−</tspan>
        <tspan x="26.236852" y="-3.778125" style="font-size: 5.95px; font-family: 'Helvetica Neue'; fill: #898781">1</tspan>
       </text>
      </g>
     </g>
    </g>
    <g id="ytick_4">
     <g id="line2d_12">
      <g>
       <use xlink:href="#mffaa9b6fc7" x="53.143125" y="140.936126" style="fill: #898781; stroke: #898781; stroke-width: 0.6"/>
      </g>
     </g>
    </g>
    <g id="ytick_5">
     <g id="line2d_13">
      <g>
       <use xlink:href="#mffaa9b6fc7" x="53.143125" y="124.759199" style="fill: #898781; stroke: #898781; stroke-width: 0.6"/>
      </g>
     </g>
     <g id="text_12">
      <!-- $\mathdefault{6\times10^{-1}}$ -->
      <g style="fill: #898781" transform="translate(17.908125 127.793964)">
       <text>
        <tspan x="0" y="-0.704688" style="font-size: 8.5px; font-family: 'Helvetica Neue'; fill: #898781">6</tspan>
        <tspan x="6.382004" y="-0.704688" style="font-size: 8.5px; font-family: 'Helvetica Neue'; fill: #898781">×</tspan>
        <tspan x="13.138016" y="-0.704688" style="font-size: 8.5px; font-family: 'Helvetica Neue'; fill: #898781">1</tspan>
        <tspan x="17.864014" y="-0.704688" style="font-size: 8.5px; font-family: 'Helvetica Neue'; fill: #898781">0</tspan>
        <tspan x="22.666848" y="-3.778125" style="font-size: 5.95px; font-family: 'Helvetica Neue'; fill: #898781">−</tspan>
        <tspan x="26.236852" y="-3.778125" style="font-size: 5.95px; font-family: 'Helvetica Neue'; fill: #898781">1</tspan>
       </text>
      </g>
     </g>
    </g>
    <g id="ytick_6">
     <g id="line2d_14">
      <g>
       <use xlink:href="#mffaa9b6fc7" x="53.143125" y="111.081801" style="fill: #898781; stroke: #898781; stroke-width: 0.6"/>
      </g>
     </g>
    </g>
    <g id="ytick_7">
     <g id="line2d_15">
      <g>
       <use xlink:href="#mffaa9b6fc7" x="53.143125" y="99.233901" style="fill: #898781; stroke: #898781; stroke-width: 0.6"/>
      </g>
     </g>
    </g>
    <g id="ytick_8">
     <g id="line2d_16">
      <g>
       <use xlink:href="#mffaa9b6fc7" x="53.143125" y="88.783312" style="fill: #898781; stroke: #898781; stroke-width: 0.6"/>
      </g>
     </g>
    </g>
    <g id="text_13">
     <text style="font-size: 9px; font-family: 'Helvetica Neue', 'Helvetica', 'Arial', 'DejaVu Sans', sans-serif; text-anchor: middle; fill: #52514e" x="10.026563" y="109.497846" transform="rotate(-90 10.026563 109.497846)">global gradient norm</text>
    </g>
   </g>
   <g id="line2d_17">
    <path d="M 74.182052 65.315012 
L 81.313892 74.99613 
L 88.445731 50.998855 
L 95.577571 34.172816 
L 102.709411 79.692625 
L 109.84125 64.884717 
L 116.97309 57.448532 
L 124.10493 78.745553 
L 131.236769 96.988903 
L 138.368609 54.942654 
L 145.500449 72.51606 
L 152.632288 110.765482 
L 159.764128 108.594595 
L 166.895968 117.19431 
L 174.027808 145.07725 
L 181.159647 145.449899 
L 188.291487 132.89993 
L 195.423327 149.440682 
L 202.555166 144.24447 
L 209.687006 130.785746 
L 216.818846 148.045506 
L 223.950685 142.133112 
L 231.082525 146.388425 
L 238.214365 148.392249 
L 245.346204 181.2579 
L 252.478044 161.716495 
L 259.609884 155.043413 
L 266.741723 118.852815 
L 273.873563 173.731165 
L 281.005403 178.641194 
L 288.137242 180.091513 
L 295.269082 137.883775 
L 302.400922 116.814901 
L 309.532761 165.403033 
L 316.664601 178.289047 
L 323.796441 170.825949 
L 330.92828 167.293436 
L 338.06012 134.966122 
L 345.19196 167.940647 
L 352.323799 168.544155 
L 359.455639 119.728765 
L 366.587479 184.822876 
L 373.719318 60.843761 
L 380.851158 179.926131 
L 387.982998 149.128741 
L 395.114837 159.984089 
L 402.246677 159.545278 
L 409.378517 164.936659 
L 416.510357 170.182097 
L 423.642196 171.499548 
L 430.774036 179.185703 
L 437.905876 177.588917 
L 445.037715 172.582986 
L 452.169555 142.475516 
L 459.301395 178.994744 
L 466.433234 169.567383 
L 473.565074 177.535289 
L 480.696914 166.674626 
L 487.828753 170.256149 
L 494.960593 172.760619 
" clip-path="url(#p67ab377e4a)" style="fill: none; stroke: #2a78d6; stroke-opacity: 0.75; stroke-linecap: round"/>
   </g>
   <g id="line2d_18">
    <path d="M 102.709411 59.434622 
L 109.84125 59.353923 
L 116.97309 56.158759 
L 124.10493 61.359011 
L 131.236769 74.519719 
L 138.368609 69.290893 
L 145.500449 70.841294 
L 152.632288 80.689503 
L 159.764128 86.028647 
L 166.895968 89.281582 
L 174.027808 107.745781 
L 181.159647 123.929056 
L 188.291487 128.594062 
L 195.423327 137.200596 
L 202.555166 143.244414 
L 209.687006 140.257303 
L 216.818846 140.74114 
L 223.950685 142.677974 
L 231.082525 142.104338 
L 238.214365 142.899036 
L 245.346204 152.193802 
L 252.478044 154.889599 
L 259.609884 157.708456 
L 266.741723 150.659917 
L 273.873563 155.301754 
L 281.005403 154.906215 
L 288.137242 158.034913 
L 295.269082 154.202781 
L 302.400922 153.590794 
L 309.532761 152.20992 
L 316.664601 152.157546 
L 323.796441 150.743119 
L 330.92828 156.72775 
L 338.06012 162.031052 
L 345.19196 162.514041 
L 352.323799 160.806096 
L 359.455639 149.249488 
L 366.587479 151.884093 
L 373.719318 127.519718 
L 380.851158 128.95302 
L 387.982998 126.217373 
L 395.114837 133.469063 
L 402.246677 130.249246 
L 409.378517 162.148172 
L 416.510357 160.478148 
L 423.642196 165.090291 
L 430.774036 168.825584 
L 437.905876 172.527232 
L 445.037715 174.137853 
L 452.169555 167.585295 
L 459.301395 168.971501 
L 466.433234 167.178869 
L 473.565074 167.169328 
L 480.696914 166.027133 
L 487.828753 172.476577 
L 494.960593 171.284439 
" clip-path="url(#p67ab377e4a)" style="fill: none; stroke: #4a3aa7; stroke-width: 2; stroke-linecap: round"/>
   </g>
   <g id="line2d_19">
    <path d="M 53.143125 79.434942 
L 515.99952 79.434942 
" clip-path="url(#p67ab377e4a)" style="fill: none; stroke-dasharray: 4.8,2.4; stroke-dashoffset: 0; stroke: #eb6834; stroke-width: 1.2"/>
   </g>
   <g id="patch_3">
    <path d="M 53.143125 192.355379 
L 53.143125 26.640312 
" style="fill: none; stroke: #c3c2b7; stroke-width: 0.8; stroke-linejoin: miter; stroke-linecap: square"/>
   </g>
   <g id="patch_4">
    <path d="M 53.143125 192.355379 
L 515.99952 192.355379 
" style="fill: none; stroke: #c3c2b7; stroke-width: 0.8; stroke-linejoin: miter; stroke-linecap: square"/>
   </g>
   <g id="text_14">
    <text style="font-size: 7.4px; font-family: 'Helvetica Neue', 'Helvetica', 'Arial', 'DejaVu Sans', sans-serif; text-anchor: start; fill: #eb6834" x="75.60842" y="74.26489" transform="rotate(-0 75.60842 74.26489)">clipping threshold</text>
   </g>
   <g id="text_15">
    <text style="font-weight: 600; font-size: 11px; font-family: 'Helvetica Neue', 'Helvetica', 'Arial', 'DejaVu Sans', sans-serif; text-anchor: start; fill: #0b0b0b" x="53.143125" y="11.640312" transform="rotate(-0 53.143125 11.640312)">Gradient norms and the clipping threshold</text>
   </g>
   <g id="legend_1">
    <g id="line2d_20">
     <path d="M 394.558426 37.528281 
L 401.358426 37.528281 
L 408.158426 37.528281 
" style="fill: none; stroke: #4a3aa7; stroke-width: 2; stroke-linecap: round"/>
    </g>
    <g id="text_16">
     <text style="font-size: 8.5px; font-family: 'Helvetica Neue', 'Helvetica', 'Arial', 'DejaVu Sans', sans-serif; text-anchor: start; fill: #52514e" x="413.258426" y="40.503281" transform="rotate(-0 413.258426 40.503281)">moving average (5 steps)</text>
    </g>
   </g>
  </g>
 </g>
 <defs>
  <clipPath id="p67ab377e4a">
   <rect x="53.143125" y="26.640312" width="462.856395" height="165.715067"/>
  </clipPath>
 </defs>
</svg>
